<?xml version="1.0" standalone="no"?>
<!DOCTYPE svg PUBLIC "-//W3C//DTD SVG 20010904//EN"
 "http://www.w3.org/TR/2001/REC-SVG-20010904/DTD/svg10.dtd">
<svg version="1.0" xmlns="http://www.w3.org/2000/svg"
 width="512.000000pt" height="512.000000pt" viewBox="0 0 512.000000 512.000000"
 preserveAspectRatio="xMidYMid meet">

<g transform="translate(0.000000,512.000000) scale(0.100000,-0.100000)"
fill="#FFFFFF" stroke="none">
<path d="M2470 4951 c-437 -61 -726 -500 -590 -896 l19 -55 -549 0 c-359 0
-567 -4 -600 -11 -66 -14 -127 -62 -159 -124 l-26 -49 -5 -346 -5 -345 -155
-230 -155 -230 -3 -163 c-2 -90 2 -195 8 -233 13 -90 55 -172 117 -230 58 -55
85 -72 144 -92 l44 -15 3 -805 2 -806 -175 -3 c-164 -3 -176 -4 -196 -25 -29
-29 -29 -77 0 -106 l22 -22 2349 0 2349 0 22 22 c29 29 29 77 0 106 -20 21
-32 22 -196 25 l-175 3 2 806 3 805 44 15 c59 20 86 37 144 92 62 58 104 140
117 230 6 38 10 143 8 233 l-3 163 -155 230 -155 230 -5 345 -5 346 -26 49
c-32 62 -93 110 -159 124 -33 7 -241 11 -600 11 l-549 0 19 55 c106 309 -51
669 -362 826 -114 57 -285 87 -408 70z m225 -166 c243 -62 425 -289 425 -530
0 -125 -68 -288 -226 -542 -71 -114 -253 -374 -304 -433 l-30 -35 -30 35 c-16
19 -73 95 -126 168 -191 267 -357 559 -389 687 -69 274 117 573 405 649 73 19
201 20 275 1z m-715 -953 c0 -27 212 -359 334 -522 39 -52 73 -98 74 -102 2
-5 -372 -8 -832 -8 l-836 0 0 295 0 296 25 24 24 25 606 0 c333 0 605 -4 605
-8z m2399 -18 c20 -26 21 -38 21 -320 l0 -294 -836 0 c-460 0 -834 3 -832 8 2
4 35 50 74 102 122 163 334 495 334 522 0 4 274 8 609 8 l610 0 20 -26z
m-3255 -786 c-4 -7 -52 -79 -106 -160 l-98 -148 -226 0 c-177 0 -224 3 -218
13 4 6 52 78 106 160 l98 147 226 0 c177 0 224 -3 218 -12z m586 7 c0 -3 -35
-75 -77 -160 l-78 -155 -223 0 c-176 0 -222 3 -216 13 4 6 52 78 106 160 l98
147 195 0 c107 0 195 -2 195 -5z m516 -12 c-3 -10 -15 -82 -27 -160 l-23 -143
-223 0 c-123 0 -223 2 -223 5 0 3 35 75 77 160 l78 155 173 0 c160 0 173 -1
168 -17z m533 -125 c12 -79 24 -151 27 -160 5 -17 -10 -18 -226 -18 -216 0
-231 1 -226 18 3 9 15 81 27 160 l23 142 176 0 176 0 23 -142z m595 -5 c27
-82 51 -154 53 -160 4 -10 -46 -13 -229 -13 l-234 0 -23 143 c-12 78 -24 150
-27 160 -5 16 9 17 203 17 l209 0 48 -147z m599 -8 c42 -85 77 -157 77 -160 0
-3 -102 -5 -228 -5 l-228 0 -48 148 c-27 81 -51 153 -53 160 -4 9 40 12 199
12 l203 0 78 -155z m585 8 c54 -82 102 -154 106 -160 6 -10 -40 -13 -216 -13
l-223 0 -78 155 c-42 85 -77 157 -77 160 0 3 88 5 195 5 l195 0 98 -147z
m-3660 -491 c-3 -157 -3 -159 -33 -208 -19 -30 -49 -60 -79 -79 -44 -27 -58
-30 -126 -30 -68 0 -82 3 -126 30 -30 19 -60 49 -79 79 -30 49 -30 51 -33 208
l-3 158 241 0 241 0 -3 -158z m640 0 c-3 -157 -3 -159 -33 -208 -19 -30 -49
-60 -79 -79 -44 -27 -58 -30 -126 -30 -68 0 -82 3 -126 30 -30 19 -60 49 -79
79 -30 49 -30 51 -33 208 l-3 158 241 0 241 0 -3 -158z m640 0 c-3 -157 -3
-159 -33 -208 -19 -30 -49 -60 -79 -79 -44 -27 -58 -30 -126 -30 -68 0 -82 3
-126 30 -30 19 -60 49 -79 79 -30 49 -30 51 -33 208 l-3 158 241 0 241 0 -3
-158z m640 0 c-3 -157 -3 -159 -33 -208 -19 -30 -49 -60 -79 -79 -44 -27 -58
-30 -126 -30 -68 0 -82 3 -126 30 -30 19 -60 49 -79 79 -30 49 -30 51 -33 208
l-3 158 241 0 241 0 -3 -158z m640 0 c-3 -157 -3 -159 -33 -208 -19 -30 -49
-60 -79 -79 -44 -27 -58 -30 -126 -30 -68 0 -82 3 -126 30 -30 19 -60 49 -79
79 -30 49 -30 51 -33 208 l-3 158 241 0 241 0 -3 -158z m640 0 c-3 -157 -3
-159 -33 -208 -19 -30 -49 -60 -79 -79 -44 -27 -58 -30 -126 -30 -68 0 -82 3
-126 30 -30 19 -60 49 -79 79 -30 49 -30 51 -33 208 l-3 158 241 0 241 0 -3
-158z m640 0 c-3 -157 -3 -159 -33 -208 -19 -30 -49 -60 -79 -79 -44 -27 -58
-30 -126 -30 -68 0 -82 3 -126 30 -30 19 -60 49 -79 79 -30 49 -30 51 -33 208
l-3 158 241 0 241 0 -3 -158z m-3708 -366 c152 -149 389 -148 543 2 l47 46 48
-46 c154 -151 390 -151 545 0 l47 46 48 -46 c154 -151 390 -151 545 0 l47 46
48 -46 c26 -26 71 -59 100 -73 147 -74 324 -45 445 73 l47 46 48 -46 c154
-151 390 -151 545 0 l47 46 48 -45 c56 -55 84 -72 143 -92 l44 -15 3 -806 2
-806 -240 0 -240 0 -2 696 -3 696 -28 24 -28 24 -1300 0 -1301 0 -29 -29 -29
-29 0 -691 0 -691 -240 0 -240 0 2 806 3 807 40 12 c51 15 111 53 154 99 19
20 37 36 40 36 3 0 26 -20 51 -44z m1470 -1076 l0 -640 -560 0 -560 0 0 640 0
640 560 0 560 0 0 -640z m1280 0 l0 -640 -560 0 -560 0 0 640 0 640 560 0 560
0 0 -640z"/>
<path d="M2491 4550 c-90 -19 -183 -97 -224 -189 -28 -64 -28 -178 0 -242 96
-215 371 -261 527 -88 58 63 79 120 80 210 0 63 -5 86 -27 132 -32 63 -100
131 -160 157 -52 23 -138 31 -196 20z m166 -178 c66 -47 83 -162 35 -229 -47
-66 -162 -83 -229 -35 -92 65 -80 225 19 276 46 23 134 17 175 -12z"/>
</g>
</svg>
